<svg xmlns="http://www.w3.org/2000/svg" viewBox="0 0 100.71 112.82"><defs><style>.cls-1{fill:#86c3d0;}.cls-2{fill:#fff;}.cls-3{font-size:12px;fill:#1d1d1b;font-family:MyriadPro-Regular, Myriad Pro;}.cls-4{letter-spacing:-0.01em;}</style></defs><g id="API"><path class="cls-1" d="M50.35,13.37a43,43,0,1,0,43.05,43A43,43,0,0,0,50.35,13.37Z"/><path class="cls-2" d="M73.92,78.59H26.79a3.35,3.35,0,0,1-3.35-3.35v-30a1,1,0,0,1,1-1H76.23a1,1,0,0,1,1,1V75.24A3.35,3.35,0,0,1,73.92,78.59ZM25.51,46.23v29a1.28,1.28,0,0,0,1.28,1.28H73.92a1.28,1.28,0,0,0,1.28-1.28v-29Z"/><path class="cls-2" d="M76.23,46.23H24.48a1,1,0,0,1-1-1V37.57a3.35,3.35,0,0,1,3.35-3.34H73.92a3.35,3.35,0,0,1,3.35,3.34v7.62A1,1,0,0,1,76.23,46.23ZM25.51,44.16H75.2V37.57a1.28,1.28,0,0,0-1.28-1.27H26.79a1.27,1.27,0,0,0-1.28,1.27Z"/><path class="cls-2" d="M39,40.23a1.61,1.61,0,1,0,1.61-1.61A1.61,1.61,0,0,0,39,40.23Z"/><path class="cls-2" d="M34.08,40.23a1.62,1.62,0,1,0,1.62-1.61A1.62,1.62,0,0,0,34.08,40.23Z"/><path class="cls-2" d="M29.16,40.23a1.61,1.61,0,1,0,1.61-1.61A1.61,1.61,0,0,0,29.16,40.23Z"/><path class="cls-2" d="M50.35,67a5.85,5.85,0,1,1,5.85-5.85A5.86,5.86,0,0,1,50.35,67Zm0-10a4.13,4.13,0,1,0,4.14,4.13A4.14,4.14,0,0,0,50.35,57Z"/></g><g id="HOSTING"><text class="cls-3" transform="translate(17.93 -4.98)">HTML <tspan class="cls-4" x="31.64" y="0">t</tspan><tspan x="35.54" y="0">o JSON</tspan></text></g></svg>